<mxfile host="65bd71144e">
    <diagram id="eDUDZn1Po5r4limverPT" name="Página-1">
        <mxGraphModel dx="1186" dy="419" grid="1" gridSize="10" guides="1" tooltips="1" connect="1" arrows="1" fold="1" page="1" pageScale="1" pageWidth="827" pageHeight="1169" math="0" shadow="0">
            <root>
                <mxCell id="0"/>
                <mxCell id="1" parent="0"/>
                <mxCell id="2" value="Produtos" style="shape=table;startSize=30;container=1;collapsible=0;childLayout=tableLayout;fillColor=#0050ef;strokeColor=#001DBC;fontColor=#ffffff;shadow=1;rounded=1;" vertex="1" parent="1">
                    <mxGeometry y="80" width="350" height="270" as="geometry"/>
                </mxCell>
                <mxCell id="3" value="" style="shape=tableRow;horizontal=0;startSize=0;swimlaneHead=0;swimlaneBody=0;strokeColor=#996185;top=0;left=0;bottom=0;right=0;collapsible=0;dropTarget=0;fillColor=#e6d0de;points=[[0,0.5],[1,0.5]];portConstraint=eastwest;gradientColor=#d5739d;" vertex="1" parent="2">
                    <mxGeometry y="30" width="350" height="40" as="geometry"/>
                </mxCell>
                <mxCell id="4" value="id" style="shape=partialRectangle;html=1;whiteSpace=wrap;connectable=0;strokeColor=#006EAF;overflow=hidden;fillColor=#1ba1e2;top=0;left=0;bottom=0;right=0;pointerEvents=1;fontColor=#ffffff;" vertex="1" parent="3">
                    <mxGeometry width="60" height="40" as="geometry">
                        <mxRectangle width="60" height="40" as="alternateBounds"/>
                    </mxGeometry>
                </mxCell>
                <mxCell id="5" value="SERIAL PK" style="shape=partialRectangle;html=1;whiteSpace=wrap;connectable=0;strokeColor=#36393d;overflow=hidden;fillColor=#cce5ff;top=0;left=0;bottom=0;right=0;pointerEvents=1;" vertex="1" parent="3">
                    <mxGeometry x="60" width="290" height="40" as="geometry">
                        <mxRectangle width="290" height="40" as="alternateBounds"/>
                    </mxGeometry>
                </mxCell>
                <mxCell id="6" value="" style="shape=tableRow;horizontal=0;startSize=0;swimlaneHead=0;swimlaneBody=0;strokeColor=#996185;top=0;left=0;bottom=0;right=0;collapsible=0;dropTarget=0;fillColor=#e6d0de;points=[[0,0.5],[1,0.5]];portConstraint=eastwest;gradientColor=#d5739d;" vertex="1" parent="2">
                    <mxGeometry y="70" width="350" height="40" as="geometry"/>
                </mxCell>
                <mxCell id="7" value="nome" style="shape=partialRectangle;html=1;whiteSpace=wrap;connectable=0;strokeColor=#001DBC;overflow=hidden;fillColor=#0050ef;top=0;left=0;bottom=0;right=0;pointerEvents=1;fontColor=#ffffff;" vertex="1" parent="6">
                    <mxGeometry width="60" height="40" as="geometry">
                        <mxRectangle width="60" height="40" as="alternateBounds"/>
                    </mxGeometry>
                </mxCell>
                <mxCell id="8" value="VARCHAR(100)" style="shape=partialRectangle;html=1;whiteSpace=wrap;connectable=0;strokeColor=#36393d;overflow=hidden;fillColor=#cce5ff;top=0;left=0;bottom=0;right=0;pointerEvents=1;" vertex="1" parent="6">
                    <mxGeometry x="60" width="290" height="40" as="geometry">
                        <mxRectangle width="290" height="40" as="alternateBounds"/>
                    </mxGeometry>
                </mxCell>
                <mxCell id="9" value="" style="shape=tableRow;horizontal=0;startSize=0;swimlaneHead=0;swimlaneBody=0;strokeColor=#996185;top=0;left=0;bottom=0;right=0;collapsible=0;dropTarget=0;fillColor=#e6d0de;points=[[0,0.5],[1,0.5]];portConstraint=eastwest;gradientColor=#d5739d;" vertex="1" parent="2">
                    <mxGeometry y="110" width="350" height="40" as="geometry"/>
                </mxCell>
                <mxCell id="10" value="marca" style="shape=partialRectangle;html=1;whiteSpace=wrap;connectable=0;strokeColor=#006EAF;overflow=hidden;fillColor=#1ba1e2;top=0;left=0;bottom=0;right=0;pointerEvents=1;fontColor=#ffffff;" vertex="1" parent="9">
                    <mxGeometry width="60" height="40" as="geometry">
                        <mxRectangle width="60" height="40" as="alternateBounds"/>
                    </mxGeometry>
                </mxCell>
                <mxCell id="11" value="VARCHAR(50)" style="shape=partialRectangle;html=1;whiteSpace=wrap;connectable=0;overflow=hidden;top=0;left=0;bottom=0;right=0;pointerEvents=1;fillColor=#cce5ff;strokeColor=#36393d;" vertex="1" parent="9">
                    <mxGeometry x="60" width="290" height="40" as="geometry">
                        <mxRectangle width="290" height="40" as="alternateBounds"/>
                    </mxGeometry>
                </mxCell>
                <mxCell id="12" value="" style="shape=tableRow;horizontal=0;startSize=0;swimlaneHead=0;swimlaneBody=0;strokeColor=#996185;top=0;left=0;bottom=0;right=0;collapsible=0;dropTarget=0;fillColor=#e6d0de;points=[[0,0.5],[1,0.5]];portConstraint=eastwest;gradientColor=#d5739d;" vertex="1" parent="2">
                    <mxGeometry y="150" width="350" height="40" as="geometry"/>
                </mxCell>
                <mxCell id="13" value="preço" style="shape=partialRectangle;html=1;whiteSpace=wrap;connectable=0;strokeColor=#001DBC;overflow=hidden;fillColor=#0050ef;top=0;left=0;bottom=0;right=0;pointerEvents=1;fontColor=#ffffff;" vertex="1" parent="12">
                    <mxGeometry width="60" height="40" as="geometry">
                        <mxRectangle width="60" height="40" as="alternateBounds"/>
                    </mxGeometry>
                </mxCell>
                <mxCell id="14" value="DECIMAL(10,2)" style="shape=partialRectangle;html=1;whiteSpace=wrap;connectable=0;strokeColor=#36393d;overflow=hidden;fillColor=#cce5ff;top=0;left=0;bottom=0;right=0;pointerEvents=1;" vertex="1" parent="12">
                    <mxGeometry x="60" width="290" height="40" as="geometry">
                        <mxRectangle width="290" height="40" as="alternateBounds"/>
                    </mxGeometry>
                </mxCell>
                <mxCell id="15" value="" style="shape=tableRow;horizontal=0;startSize=0;swimlaneHead=0;swimlaneBody=0;strokeColor=#996185;top=0;left=0;bottom=0;right=0;collapsible=0;dropTarget=0;fillColor=#e6d0de;points=[[0,0.5],[1,0.5]];portConstraint=eastwest;gradientColor=#d5739d;" vertex="1" parent="2">
                    <mxGeometry y="190" width="350" height="40" as="geometry"/>
                </mxCell>
                <mxCell id="16" value="categoria" style="shape=partialRectangle;html=1;whiteSpace=wrap;connectable=0;strokeColor=#006EAF;overflow=hidden;fillColor=#1ba1e2;top=0;left=0;bottom=0;right=0;pointerEvents=1;fontColor=#ffffff;" vertex="1" parent="15">
                    <mxGeometry width="60" height="40" as="geometry">
                        <mxRectangle width="60" height="40" as="alternateBounds"/>
                    </mxGeometry>
                </mxCell>
                <mxCell id="17" value="VARCHAR(30)" style="shape=partialRectangle;html=1;whiteSpace=wrap;connectable=0;strokeColor=#36393d;overflow=hidden;fillColor=#cce5ff;top=0;left=0;bottom=0;right=0;pointerEvents=1;" vertex="1" parent="15">
                    <mxGeometry x="60" width="290" height="40" as="geometry">
                        <mxRectangle width="290" height="40" as="alternateBounds"/>
                    </mxGeometry>
                </mxCell>
                <mxCell id="18" value="" style="shape=tableRow;horizontal=0;startSize=0;swimlaneHead=0;swimlaneBody=0;strokeColor=#996185;top=0;left=0;bottom=0;right=0;collapsible=0;dropTarget=0;fillColor=#e6d0de;points=[[0,0.5],[1,0.5]];portConstraint=eastwest;gradientColor=#d5739d;" vertex="1" parent="2">
                    <mxGeometry y="230" width="350" height="40" as="geometry"/>
                </mxCell>
                <mxCell id="19" value="estoque" style="shape=partialRectangle;html=1;whiteSpace=wrap;connectable=0;strokeColor=#001DBC;overflow=hidden;fillColor=#0050ef;top=0;left=0;bottom=0;right=0;pointerEvents=1;fontColor=#ffffff;" vertex="1" parent="18">
                    <mxGeometry width="60" height="40" as="geometry">
                        <mxRectangle width="60" height="40" as="alternateBounds"/>
                    </mxGeometry>
                </mxCell>
                <mxCell id="20" value="INT DEFAULT 0" style="shape=partialRectangle;html=1;whiteSpace=wrap;connectable=0;strokeColor=#6c8ebf;overflow=hidden;fillColor=#dae8fc;top=0;left=0;bottom=0;right=0;pointerEvents=1;gradientColor=#7ea6e0;" vertex="1" parent="18">
                    <mxGeometry x="60" width="290" height="40" as="geometry">
                        <mxRectangle width="290" height="40" as="alternateBounds"/>
                    </mxGeometry>
                </mxCell>
            </root>
        </mxGraphModel>
    </diagram>
</mxfile>